/* XPM */
static char * about_xpm[] = {
"48 48 15 1",
" 	s mask c none",
".	c #757575757575",
"X	c #2D2D2D2D2D2D",
"o	c #000000000000",
"O	c #CFCFCFCFCFCF",
"+	c #FFFFFFFFFFFF",
"@	c #4F4F4F4F4F4F",
"#	c #9F9F9F9F9F9F",
"$	c #D6D6D6D6D6D6",
"%	c #9F9F9F9FFFFF",
"&	c #00000000FFFF",
"*	c #D5D5D5D5D5D5",
"=	c #3F3F3F3FFFFF",
"-	c #0F0F0F0FFFFF",
";	c #CFCFCFCFFFFF",
"                                                ",
"                                                ",
"                                                ",
"                                                ",
"                  .XooooooX.                    ",
"               .oo.O++++++O.oo.                 ",
"             oo@++++++++++++++@oo               ",
"           .oO++++++++++++++++++Oo@             ",
"           o#++++++++++++++++++++#o             ",
"         #o++++++++++++++++++++++++o.           ",
"        oo++++++++++++++++++++++++++oo          ",
"       X@++++++++++++++++++++++++++++@X         ",
"      #o++++++++++++++++++++++++++++++o.        ",
"      o#++.+++++++++++++++++++++++++++#X        ",
"     #o++ooO+++++++++++++++++++++++++++o.       ",
"     o$++.oooO+++++++++++++++++++++++++$o.      ",
"    Oo++++OoooO++++++++++++++++++%++++++o@.     ",
"    .X+++++OooooO++++++++++++++++&%+++++X@.     ",
"    o$+++++++.oooO+++++++++++++++&&%++++$o..    ",
"   *o+++++++++Oooo.++++++++++++++&&&%++++o@.    ",
"    o++++++++++OooooO++++++++++++&&=&%+++o@@    ",
"   .X++++++++++++.oooO+++++++++++&&=&&%++X.@.   ",
"   .@+&=++=+=%&%&&&&&&&&&&=======&&-&&&%+@@@.   ",
"   .@+&&++&+&%&%=&&&&&&&&&&&&&&&&&&&&&&&+@@@.   ",
"   .@+&&++&+&%&%=&&&&&&&&&&&&&&&&&&&&&&-+@@@.   ",
"   .@+&&++&+&%&%=&&&&&&&&&&&&&&&&&&&&&-%+@@X.   ",
"   #o++++++++++++++++ooo+++++++++&&=&-%++oXX.   ",
"    o++++++++++++++++ooo+++++++++&&=-;+++oX@.   ",
"    o++++++++++++++++ooo+++++++++&&=%++++oX@.   ",
"    o$+++++++++++++++ooo+++++++++&&%++++$oX@.   ",
"    @X+++++++++++++++ooo+++++++++&%+++++X@X@.   ",
"     o+++++++++++++++ooo+++++++++%++++++oX@@    ",
"     o$++++++++++++++ooo+++++++++++++++$oX@.    ",
"     .o++++++++++++++ooo+++++++++++++++o@X@.    ",
"      o#+++++++++++++ooo++++++++++++++#XX@.     ",
"      #o+++++++++++++ooo++++++++++++++oXX@.     ",
"       .o@+++++++++++ooo++++++++++++@o@X@.      ",
"       #oo+++++++++++ooo++++++++++++ooXX@.      ",
"         .o++++++++++ooo+++++++++++oXXX@.       ",
"          .o#++++++++ooo+++++++++#o@XX@.        ",
"           .oo$++++++ooo+++++++@oXXX@@.         ",
"            .oo@++++++o+++++++@oo@XX@@          ",
"             ..@oo.O++++++O.oo@XXX@@.           ",
"               ..@XXooooooXoXXX@@@.             ",
"                 ..@@@@@XX@@@@@...              ",
"                    ..........                  ",
"                                                ",
"                                                "};
