/* XPM */
static char * annotate_xpm[] = {
"30 30 5 1",
" 	s mask c none",
".	c #00000000BEBE",
"X	c #909090909090",
"o	c #616161616161",
"O	c #62626262CECE",
"                              ",
"                              ",
"                              ",
"              .X              ",
"             ...X             ",
"             ...oX            ",
"            ..o..XX           ",
"            ..o..oX           ",
"           O..o..OX           ",
"           ..OoO..oX          ",
"          O..oXX..OX          ",
"          ..OoX O..oX         ",
"          ..oX   ..oX         ",
"         ..OoX   O..X         ",
"         ..oX     ..oX        ",
"        O...........OX        ",
"        .............o        ",
"        ..ooooooooo..oX       ",
"       ..OoXXXXXXXXO..X       ",
"       ..oXX        ..oX      ",
"      O..oX         ..OX      ",
"      ..OoX         O..oX     ",
"     O..oXX          ..OX     ",
"     ..OoX           O..oX    ",
"     ..oXX            ..oX    ",
"      ooX              ooX    ",
"       X                XX    ",
"                              ",
"                              ",
"                              "};
