/* XPM */
static char * clock1_xpm[] = {
"15 15 6 1",
" 	s mask c none",
".	c #D3D3D3D3D3D3",
"X	c #888888888888",
"o	c #000000000000",
"O	c #F8F8F8F8F8F8",
"+	c #FFFF00000000",
"      .X.      ",
"    .ooooo.    ",
"   Xo.OOO.oX   ",
"  XoOOO+OOOoX  ",
" .oOOOO+OOOOo. ",
" o.OOOO+OOOO.o ",
".oOOOOO+OOOOOo.",
"XoOOOOO+OOOOOoX",
".oOOOOOOOOOOOo.",
" o.OOOOOOOOO.o ",
" .oOOOOOOOOOo. ",
"  XoOOOOOOOoX  ",
"   Xo.OOO.oX   ",
"    .ooooo.    ",
"      .X.      "};
