/* XPM */
static char * clock2_xpm[] = {
"15 15 6 1",
" 	s mask c none",
".	c #D3D3D3D3D3D3",
"X	c #888888888888",
"o	c #000000000000",
"O	c #F8F8F8F8F8F8",
"+	c #FFFF00000000",
"      .X.      ",
"    .ooooo.    ",
"   Xo.OOO.oX   ",
"  XoOOOOOOOoX  ",
" .oOOOOOOO+Oo. ",
" o.OOOOOO+OO.o ",
".oOOOOOO+OOOOo.",
"XoOOOOO+OOOOOoX",
".oOOOOOOOOOOOo.",
" o.OOOOOOOOO.o ",
" .oOOOOOOOOOo. ",
"  XoOOOOOOOoX  ",
"   Xo.OOO.oX   ",
"    .ooooo.    ",
"      .X.      "};
