/* XPM */
static char * confirm_xpm[] = {
"40 40 8 1",
" 	s mask c none",
".	c #4A4A4A4A4A4A",
"X	c #000000000000",
"o	c #7C7C7C7C7C7C",
"O	c #BABABABABABA",
"+	c #FFFFFFFFFFFF",
"@	c #6E6E6E6EFFFF",
"#	c #00000000FFFF",
"                                        ",
"                                        ",
"               .XXXXXXXX.               ",
"            .XXX..oooo..XXX.            ",
"           XX.O++++++++++O.XX           ",
"         .X.O++++++++++++++O.X.         ",
"        XX.O++++++@@@@++++++O.XX        ",
"       X.O++++++########@+++++O.X       ",
"      X.O++++++##########@+++++O.X      ",
"     X.O++++++##@+++++@###++++++O.X     ",
"    .XO++++++##@+++++++@##@++++++OX.    ",
"    X.+++++++##+++++++++###+++++++.X    ",
"   .XO+++++++###@+++++++###+++++++OX.   ",
"   X.++++++++####+++++++###++++++++.X   ",
"   XO+++++++++@#@++++++####++++++++OX   ",
"  .X++++++++++++++++++#####+++++++++X.  ",
"  X.+++++++++++++++++#####@+++++++++.X  ",
"  X.+++++++++++++++++####@++++++++++.X  ",
"  Xo++++++++++++++++#####+++++++++++oX  ",
"  Xo++++++++++++++++####@+++++++++++oX  ",
"  Xo+++++++++++++++#####++++++++++++oX  ",
"  Xo+++++++++++++++####@++++++++++++oX  ",
"  X.++++++++++++++####@+++++++++++++.X  ",
"  X.+++++++++++++####@++++++++++++++.X  ",
"  .X+++++++++++++###@+++++++++++++++X.  ",
"   XO++++++++++++###+++++++++++++++OX   ",
"   X.++++++++++++###+++++++++++++++.X   ",
"   .XO+++++++++++###++++++++++++++OX.   ",
"    X.++++++++++++++++++++++++++++.X    ",
"    .XO++++++++++++++++++++++++++OX.    ",
"     X.O++++++++++@+++++++++++++O.X     ",
"      X.O++++++++###+++++++++++O.X      ",
"       X.O++++++@###@+++++++++O.X       ",
"        XX.O+++++###++++++++O.XX        ",
"         .X.O+++++@++++++++O.X.         ",
"           XX.O++++++++++O.XX           ",
"            .XXX..oooo..XXX.            ",
"               .XXXXXXXX.               ",
"                                        ",
"                                        "};
