/* XPM */
static char * edit_xpm[] = {
"30 30 9 1",
" 	s mask c none",
".	c #88884C4C2828",
"X	c #C3C36D6D3939",
"o	c #000000000000",
"O	c #FFFFFFFFFFFF",
"+	c #C0C0A0A05858",
"@	c #616161616161",
"#	c #A7A7A7A7A7A7",
"$	c #E6E6BFBF6969",
"                              ",
"                            .X",
"   ooooooooooooooooooooooooX..",
"   oOOOOOOOOOOOOOOOOOOOOOOo+. ",
"   oO@#O@#O@#O@#@#@OO@O@#O+++ ",
"   oOO#OO#O#OO#OO#O#O##OO+++# ",
"   oOOOOOOOOOOOOOOOOOOOO$++$# ",
"   oO@#O@OO@@#O@#O@O@#@O+++@# ",
"   oO#OO##O##OO#OO#O#OO$++o@# ",
"   oOOOOOOOOOOOOOOOOOOO+++o@# ",
"   oO@O@OO#@O@#@O@#@O@+++Oo@# ",
"   oO@#O#OOO##O#O#OO#$++$Oo@# ",
"   oOOOOOOOOOOOOOOOOO+++OOo@# ",
"   oO@#O@#@O@#O@#O@#+++#OOo@# ",
"   oOO#O#O#O#O#OO##O++$O#Oo@# ",
"   oOOOOOOOOOOOOOOO+++OOOOo@# ",
"   oO@O@@#@O@#O@O@O++$@#OOo@# ",
"   oOO#O#OO##O##OO+++#OO##o@# ",
"   oOOOOOOOOOOOOO+++OO@@@@o@# ",
"   oO@@O@#O@#O@##++@@#@#@#o@# ",
"   oO#O#O#O#O#OO+++O@@#@@Oo@# ",
"   oOOOOOOOOOOO$++$@#@@OOOo@# ",
"   oO@O@O#@O#@#+++@@@@#O@Oo@# ",
"   oOO###OO##O+++@@O#OO##Oo@# ",
"   oOOOOOOOOOO++@OOOOOOOOOo@# ",
"   oOOOOOOOOOOOOOOOOOOOOOOo@# ",
"   oooooooooooooooooooooooo@# ",
"    @@@@@@@@@@@@@@@@@@@@@@@@# ",
"     ######################## ",
"                              "};
