/* XPM */
static char * error_xpm[] = {
"53 47 4 1",
" 	s mask c none",
".	c #FFFF32323232",
"X	c #FFFFFFFFFFFF",
"o	c #000000000000",
"                                                     ",
"                                                     ",
"                         ...                         ",
"                        .....                        ",
"                        .....                        ",
"                       .......                       ",
"                       .......                       ",
"                      .........                      ",
"                     ...........                     ",
"                     ...........                     ",
"                    ......X......                    ",
"                    .....XXX.....                    ",
"                   ......XXX......                   ",
"                  ......XXXXX.....                   ",
"                  ......XXXXX......                  ",
"                 ......XXXXXXX......                 ",
"                 .....XXXoooXXX.....                 ",
"                ......XXoooooXX......                ",
"                .....XXXoooooXXX.....                ",
"               ......XXXoooooXXX......               ",
"              ......XXXXoooooXXXX.....               ",
"              .....XXXXXoooooXXXXX.....              ",
"             ......XXXXXoooooXXXXX.....              ",
"             .....XXXXXXoooooXXXXXX.....             ",
"            ......XXXXXXoooooXXXXXX......            ",
"           ......XXXXXXXoooooXXXXXXX.....            ",
"           ......XXXXXXXoooooXXXXXXX......           ",
"          ......XXXXXXXXoooooXXXXXXXX.....           ",
"          .....XXXXXXXXXoooooXXXXXXXXX.....          ",
"         ......XXXXXXXXXoooooXXXXXXXXX.....          ",
"         .....XXXXXXXXXXoooooXXXXXXXXXX.....         ",
"        ......XXXXXXXXXXoooooXXXXXXXXXX......        ",
"        .....XXXXXXXXXXXXoooXXXXXXXXXXXX.....        ",
"       ......XXXXXXXXXXXXXXXXXXXXXXXXXXX......       ",
"      ......XXXXXXXXXXXXXoooXXXXXXXXXXXXX.....       ",
"      .....XXXXXXXXXXXXXoooooXXXXXXXXXXXXX.....      ",
"     ......XXXXXXXXXXXXXoooooXXXXXXXXXXXXX.....      ",
"     .....XXXXXXXXXXXXXXoooooXXXXXXXXXXXXXX.....     ",
"    ......XXXXXXXXXXXXXXXoooXXXXXXXXXXXXXXX......    ",
"   .......XXXXXXXXXXXXXXXXXXXXXXXXXXXXXXXXX......    ",
"   ...............................................   ",
"  ................................................   ",
"  .................................................  ",
"  .................................................  ",
"   ...............................................   ",
"                                                     ",
"                                                     "};
