/* XPM */
static char * gtimer2_xpm[] = {
"48 48 13 1",
" 	c None",
".	c #16162B2B4242",
"X	c #2C2C54548080",
"o	c #757575757575",
"O	c #2D2D2D2D2D2D",
"+	c #000000000000",
"@	c #CFCFCFCFCFCF",
"#	c #FFFFFFFFFFFF",
"$	c #4F4F4F4F4F4F",
"%	c #9F9F9F9F9F9F",
"&	c #21213F3F6161",
"*	c #D6D6D6D6D6D6",
"=	c #D5D5D5D5D5D5",
"                                               .",
"                                              X.",
"                                             XX.",
"                                            XXX.",
"                  oO++++++Oo               XXXX.",
"               o++o@######@o++o           XXXXX.",
"             ++$##############$++        XXXXXX.",
"           o+@##################@+$     XXXXXXX.",
"           +%####################%+    XXXXXXXX.",
"         %+########################+o XXXXXXXXX.",
"        ++##########################++XXXXXXXXX.",
"       O$############################$OXXXXXXXX.",
"      %+##############################+&XXXXXXX.",
"      +%#@o###########################%OXXXXXXX.",
"     %+##++@###########################+&XXXXXX.",
"     +*##o+++@#########################*+&XXXXX.",
"    @+####@+++@#########################+.&XXXX.",
"    oO#####@++++@#######################O.&XXXX.",
"    +*#######o+++@######################*+&&XXX.",
"   =+#########@+++o######################+.&XXX.",
"    +##########@++++@####################+..XXX.",
"   oO############o+++@###################O..&XX.",
"   o$#############@+++o@#################$..&XX.",
"   o$##############@o++o#################$..&XX.",
"   o$################+++#################$$.&XX.",
"   o$################+++#################$$O&XX.",
"   %+################+++#################+OO&XX.",
"    +################+++#################+O.&XX.",
"    +################+++#################+O.&XX.",
"    +*###############+++################*+O.&XX.",
"    $O###############+++################O$O.&XX.",
"     +###############+++################+O..XXX.",
"     +*##############+++###############*+O.&XXX.",
"     o+##############+++###############+$O.&XXX.",
"      +%#############+++##############%OO.&XXXX.",
"      %+#############+++##############+OO.&XXXX.",
"       o+$###########+++############$+$O.&XXXXX.",
"       %++###########+++############++OO.&XXXXX.",
"         .+##########+++###########+OOO.&XXXXXX.",
"        XX&+%########+++#########%+$OO.&XXXXXXX.",
"       XXXX&++*######+++#######$+OOO..&XXXXXXXX.",
"      XXXXXX&++$######+#######$++$OO..XXXXXXXXX.",
"     XXXXXXXX&&.++o@######@o++$OOO..&XXXXXXXXXX.",
"    XXXXXXXXXXX&&.OO++++++O+OOO...&XXXXXXXXXXXX.",
"   XXXXXXXXXXXXXX&&.....OO.....&&&XXXXXXXXXXXXX.",
"  XXXXXXXXXXXXXXXXXX&&&&&&&&&&XXXXXXXXXXXXXXXXX.",
" XXXXXXXXXXXXXXXXXXXXXXXXXXXXXXXXXXXXXXXXXXXXXX.",
"................................................"};
