/* XPM */
static char * new_xpm[] = {
"30 30 10 1",
" 	s mask c none",
".	c #FFFFFFFFFFFF",
"X	c #FFFFFFFF0000",
"o	c #A7A7A7A7A7A7",
"O	c #88884C4C2828",
"+	c #C3C36D6D3939",
"@	c #616161616161",
"#	c #000000000000",
"$	c #C0C0A0A05858",
"%	c #E6E6BFBF6969",
" .  Xo.  X                    ",
"  X XoX X                   O+",
"   ..@..###################+OO",
"  .X@@@Xo.................#$O ",
"Xoo@@X@@oXX@o.@o@o@..@.@o.$$$ ",
"  .X@@@X...o..o..o.o.oo..$$$o ",
"   @.@X.................%$$%o ",
"   #XoXX@..@@o.@o.@.@o@.$$$@o ",
"   #XoX.oo.oo..o..o.o..%$$#@o ",
"   #..X................$$$#@o ",
"   #.@.@..o@.@o@.@o@.@$$$.#@o ",
"   #.@o.o...oo.o.o..o%$$%.#@o ",
"   #.................$$$..#@o ",
"   #.@o.@o@.@o.@o.@o$$$o..#@o ",
"   #..o.o.o.o.o..oo.$$%.o.#@o ",
"   #...............$$$....#@o ",
"   #.@.@@o@.@o.@.@.$$%@o..#@o ",
"   #..o.o..oo.oo..$$$o..oo#@o ",
"   #.............$$$..@@@@#@o ",
"   #.@@.@o.@o.@oo$$@@o@o@o#@o ",
"   #.o.o.o.o.o..$$$.@@o@@.#@o ",
"   #...........%$$%@o@@...#@o ",
"   #.@.@.o@.o@o$$$@@@@o.@.#@o ",
"   #..ooo..oo.$$$@@.o..oo.#@o ",
"   #..........$$@.........#@o ",
"   #......................#@o ",
"   ########################@o ",
"    @@@@@@@@@@@@@@@@@@@@@@@@o ",
"     oooooooooooooooooooooooo ",
"                              "};
