/* XPM */
static char * start_xpm[] = {
"30 30 7 1",
" 	s mask c none",
".	c #909090909090",
"X	c #616161616161",
"o	c #000000000000",
"O	c #FFFFFFFFFFFF",
"+	c #00000000FFFF",
"@	c #8B8B8B8BFFFF",
"                              ",
"              ..              ",
"          .XooooooX.          ",
"        .oooXX..XXooo.        ",
"       XoXOOOOOOOOOOXoX       ",
"     .oo.OOOOOOOOOOOO.oo.     ",
"     oXOOOOOOOOOOOOOOOOXo.    ",
"    oXOOOOOOOOOOOOOOOOOOXo.   ",
"   Xo.OOOOOOOOOOOOOOOOOO.oX.  ",
"   oXOOOOOOOOOOOOOOOOOOOOXo.  ",
"  .oOOoo.OOOOOOOOOOO+OOOOOo.. ",
"  oXOOO.oo.OOOOOOOOO++OOOOXo. ",
"  oXOOOOO.oo.OOOOOOO++@OOOXoX.",
"  oXO++O+O+O+@+++++++++@OOXoX.",
" .o.O++O+O+O+@++++++++++@O.oX.",
" .o.O++O+O+O+@++++++++++@O.o.X",
"  oXO++O+O+O+@+++++++++@OOXoXX",
"  oXOOOOOOOOOOo.OOOO++@OOOXoX.",
"  oXOOOOOOOOOOo.OOOO++OOOOXoX.",
"  .oOOOOOOOOOOo.OOOO+OOOOOo.X ",
"   oXOOOOOOOOOo.OOOOOOOOOXoXX ",
"   Xo.OOOOOOOOo.OOOOOOOO.oXX. ",
"    oXOOOOOOOOo.OOOOOOOOXoX.  ",
"     oXOOOOOOOo.OOOOOOOXoXX   ",
"     .oo.OOOOOOOOOOOO.oo.X.   ",
"      .XoXOOOOOOOOOOXoXXX.    ",
"       ..oooXX..XXooo.XX.     ",
"        ...XooooooX.XXX.      ",
"         ..XXX..XXXXX.        ",
"           ...XX....          "};
