/* XPM */
static char * stop_xpm[] = {
"30 30 6 1",
" 	s mask c none",
".	c #909090909090",
"X	c #616161616161",
"o	c #000000000000",
"O	c #FFFFFFFFFFFF",
"+	c #FFFF00000000",
"                              ",
"              ..              ",
"          .XooooooX.          ",
"        .oooXX..XXooo.        ",
"       XoXOOOOOOOOOOXoX       ",
"     .oo.OOOOOOOOOOOO.oo.     ",
"     oXOOOOOOOOOOOOOOOOXo.    ",
"    oXOO++OOOOOOOOOOO++OXo.   ",
"   Xo.OO+++OOOOOOOOO+++O.oX.  ",
"   oXOOOO+++OOOOOOO+++OOOXo.  ",
"  .oOOoo.O+++OOOOO+++OOOOOo.. ",
"  oXOOO.oo.+++OOO+++OOOOOOXo. ",
"  oXOOOOO.oo+++O+++OOOOOOOXoX.",
"  oXOOOOOOO.o+++++OOOOOOOOXoX.",
" .o.OOOOOOOOOO+++OOOOOOOOO.oX.",
" .o.OOOOOOOOO+++++OOOOOOOO.o.X",
"  oXOOOOOOOO+++.+++OOOOOOOXoXX",
"  oXOOOOOOO+++o.O+++OOOOOOXoX.",
"  oXOOOOOO+++Oo.OO+++OOOOOXoX.",
"  .oOOOOO+++OOo.OOO+++OOOOo.X ",
"   oXOOO+++OOOo.OOOO+++OOXoXX ",
"   Xo.OO++OOOOo.OOOOO++O.oXX. ",
"    oXOOOOOOOOo.OOOOOOOOXoX.  ",
"     oXOOOOOOOo.OOOOOOOXoXX   ",
"     .oo.OOOOOOOOOOOO.oo.X.   ",
"      .XoXOOOOOOOOOOXoXXX.    ",
"       ..oooXX..XXooo.XX.     ",
"        ...XooooooX.XXX.      ",
"         ..XXX..XXXXX.        ",
"           ...XX....          "};
