/* XPM */
static char * stop_all_xpm[] = {
"30 30 6 1",
" 	s mask c none",
".	c #FFFFFFFFFFFF",
"X	c #FFFFC6C6D0D0",
"o	c #FFFF00000000",
"O	c #757574747676",
"+	c #9F9FA2A2A6A6",
"        ............          ",
"       .XooooooooooX.         ",
"      .XooooooooooooX.        ",
"     .XooooooooooooooX.       ",
"    .XooooooooooooooooX.      ",
"   .XooooooooooooooooooX.     ",
"  .XooooooooooooooooooooX.    ",
" .XooooooooooooooooooooooX.   ",
".XoX..Xo......o....oo....oX.  ",
".oX....X............o.....o.O ",
".o..oo.Xoo..oo..oo..o..oX.X.O+",
".o..oooooo..oo..oo..o..oX.X.O+",
".oX..ooooo..oo..oo..o..oX.X.O+",
".ooX...ooo..oo..oo..o.....o.O+",
".oooX..Xoo..oo..oo..o....oo.O+",
".ooooX..oo..oo..oo..o..oooo.O+",
".ooooo..oo..oo..oo..o..oooo.O+",
".oX.oo..oo..oo..oo..o..oooo.O+",
".oX....Xoo..oo......o..oooo.O+",
".XX...Xooo..ooo....oo..oooX.O+",
" .XooooooooooooooooooooooX.OO+",
"  .XooooooooooooooooooooX.OO+ ",
"   .XooooooooooooooooooX.OO+  ",
"    .XooooooooooooooooX.OO+   ",
"     .XooooooooooooooX.OO+    ",
"      .XooooooooooooX.OO+     ",
"       .XooooooooooX.OO+      ",
"        ............OO+       ",
"         OOOOOOOOOOOO+        ",
"          +++++++++++         "};
